<mxfile host="app.diagrams.net" agent="Mozilla/5.0 (Windows NT 10.0; Win64; x64) AppleWebKit/537.36 (KHTML, like Gecko) Chrome/131.0.0.0 Safari/537.36 Edg/131.0.0.0" version="25.0.1">
  <diagram name="หน้า-1" id="5ZEylbr8XKbLjIESe_yZ">
    <mxGraphModel dx="555" dy="265" grid="1" gridSize="10" guides="1" tooltips="1" connect="1" arrows="1" fold="1" page="1" pageScale="1" pageWidth="827" pageHeight="1169" math="0" shadow="0">
      <root>
        <mxCell id="0" />
        <mxCell id="1" parent="0" />
        <mxCell id="qZE49mf_wFix2GLxkp7e-4" value="" style="edgeStyle=orthogonalEdgeStyle;rounded=0;orthogonalLoop=1;jettySize=auto;html=1;" edge="1" parent="1" source="qZE49mf_wFix2GLxkp7e-1" target="qZE49mf_wFix2GLxkp7e-2">
          <mxGeometry relative="1" as="geometry" />
        </mxCell>
        <mxCell id="qZE49mf_wFix2GLxkp7e-1" value="Start" style="ellipse;whiteSpace=wrap;html=1;" vertex="1" parent="1">
          <mxGeometry x="353" y="40" width="120" height="80" as="geometry" />
        </mxCell>
        <mxCell id="qZE49mf_wFix2GLxkp7e-5" value="" style="edgeStyle=orthogonalEdgeStyle;rounded=0;orthogonalLoop=1;jettySize=auto;html=1;" edge="1" parent="1" source="qZE49mf_wFix2GLxkp7e-2" target="qZE49mf_wFix2GLxkp7e-3">
          <mxGeometry relative="1" as="geometry" />
        </mxCell>
        <mxCell id="qZE49mf_wFix2GLxkp7e-2" value="รับข้อมูลStartUser&amp;nbsp;" style="shape=parallelogram;perimeter=parallelogramPerimeter;whiteSpace=wrap;html=1;fixedSize=1;" vertex="1" parent="1">
          <mxGeometry x="318" y="170" width="190" height="60" as="geometry" />
        </mxCell>
        <mxCell id="qZE49mf_wFix2GLxkp7e-10" value="" style="edgeStyle=orthogonalEdgeStyle;rounded=0;orthogonalLoop=1;jettySize=auto;html=1;" edge="1" parent="1" source="qZE49mf_wFix2GLxkp7e-3" target="qZE49mf_wFix2GLxkp7e-9">
          <mxGeometry relative="1" as="geometry" />
        </mxCell>
        <mxCell id="qZE49mf_wFix2GLxkp7e-3" value="รับข้อมูลEndUser&amp;nbsp;" style="shape=parallelogram;perimeter=parallelogramPerimeter;whiteSpace=wrap;html=1;fixedSize=1;" vertex="1" parent="1">
          <mxGeometry x="318" y="280" width="190" height="60" as="geometry" />
        </mxCell>
        <mxCell id="qZE49mf_wFix2GLxkp7e-15" value="" style="edgeStyle=orthogonalEdgeStyle;rounded=0;orthogonalLoop=1;jettySize=auto;html=1;" edge="1" parent="1" source="qZE49mf_wFix2GLxkp7e-6" target="qZE49mf_wFix2GLxkp7e-12">
          <mxGeometry relative="1" as="geometry" />
        </mxCell>
        <mxCell id="qZE49mf_wFix2GLxkp7e-20" style="edgeStyle=orthogonalEdgeStyle;rounded=0;orthogonalLoop=1;jettySize=auto;html=1;" edge="1" parent="1" source="qZE49mf_wFix2GLxkp7e-6" target="qZE49mf_wFix2GLxkp7e-19">
          <mxGeometry relative="1" as="geometry" />
        </mxCell>
        <mxCell id="qZE49mf_wFix2GLxkp7e-6" value="Loop Start ถึง END" style="rhombus;whiteSpace=wrap;html=1;" vertex="1" parent="1">
          <mxGeometry x="339.5" y="460" width="147" height="80" as="geometry" />
        </mxCell>
        <mxCell id="qZE49mf_wFix2GLxkp7e-7" value="Y" style="text;html=1;align=center;verticalAlign=middle;whiteSpace=wrap;rounded=0;" vertex="1" parent="1">
          <mxGeometry x="354" y="540" width="60" height="30" as="geometry" />
        </mxCell>
        <mxCell id="qZE49mf_wFix2GLxkp7e-8" value="N" style="text;html=1;align=center;verticalAlign=middle;whiteSpace=wrap;rounded=0;" vertex="1" parent="1">
          <mxGeometry x="458" y="460" width="60" height="30" as="geometry" />
        </mxCell>
        <mxCell id="qZE49mf_wFix2GLxkp7e-11" value="" style="edgeStyle=orthogonalEdgeStyle;rounded=0;orthogonalLoop=1;jettySize=auto;html=1;" edge="1" parent="1" source="qZE49mf_wFix2GLxkp7e-9" target="qZE49mf_wFix2GLxkp7e-6">
          <mxGeometry relative="1" as="geometry" />
        </mxCell>
        <mxCell id="qZE49mf_wFix2GLxkp7e-9" value="" style="ellipse;whiteSpace=wrap;html=1;aspect=fixed;" vertex="1" parent="1">
          <mxGeometry x="400.5" y="390" width="25" height="25" as="geometry" />
        </mxCell>
        <mxCell id="qZE49mf_wFix2GLxkp7e-18" value="" style="edgeStyle=orthogonalEdgeStyle;rounded=0;orthogonalLoop=1;jettySize=auto;html=1;" edge="1" parent="1" source="qZE49mf_wFix2GLxkp7e-12" target="qZE49mf_wFix2GLxkp7e-17">
          <mxGeometry relative="1" as="geometry" />
        </mxCell>
        <mxCell id="qZE49mf_wFix2GLxkp7e-12" value="Loop J ถึง 9" style="rhombus;whiteSpace=wrap;html=1;" vertex="1" parent="1">
          <mxGeometry x="539.5" y="570" width="147" height="80" as="geometry" />
        </mxCell>
        <mxCell id="qZE49mf_wFix2GLxkp7e-13" value="Y" style="text;html=1;align=center;verticalAlign=middle;whiteSpace=wrap;rounded=0;" vertex="1" parent="1">
          <mxGeometry x="508" y="570" width="60" height="30" as="geometry" />
        </mxCell>
        <mxCell id="qZE49mf_wFix2GLxkp7e-14" value="N" style="text;html=1;align=center;verticalAlign=middle;whiteSpace=wrap;rounded=0;" vertex="1" parent="1">
          <mxGeometry x="658" y="570" width="60" height="30" as="geometry" />
        </mxCell>
        <mxCell id="qZE49mf_wFix2GLxkp7e-21" style="edgeStyle=orthogonalEdgeStyle;rounded=0;orthogonalLoop=1;jettySize=auto;html=1;entryX=1;entryY=0.5;entryDx=0;entryDy=0;" edge="1" parent="1" source="qZE49mf_wFix2GLxkp7e-17" target="qZE49mf_wFix2GLxkp7e-9">
          <mxGeometry relative="1" as="geometry">
            <Array as="points">
              <mxPoint x="740" y="720" />
              <mxPoint x="740" y="403" />
            </Array>
          </mxGeometry>
        </mxCell>
        <mxCell id="qZE49mf_wFix2GLxkp7e-17" value="แสดงขอมูล แม่สูตรคูณ&amp;nbsp;" style="shape=parallelogram;perimeter=parallelogramPerimeter;whiteSpace=wrap;html=1;fixedSize=1;" vertex="1" parent="1">
          <mxGeometry x="518" y="690" width="190" height="60" as="geometry" />
        </mxCell>
        <mxCell id="qZE49mf_wFix2GLxkp7e-19" value="End" style="ellipse;whiteSpace=wrap;html=1;" vertex="1" parent="1">
          <mxGeometry x="353" y="670" width="120" height="80" as="geometry" />
        </mxCell>
      </root>
    </mxGraphModel>
  </diagram>
</mxfile>
